<svg id="Layer_1" data-name="Layer 1" xmlns="http://www.w3.org/2000/svg" viewBox="0 0 366.08 50.75"><defs><style>.cls-1,.cls-3,.cls-5{fill:#fff;}.cls-2{fill:none;stroke:#fff;stroke-width:1.59px;}.cls-3,.cls-5{font-size:15.95px;}.cls-3{font-family:Cynulliad Serif;font-weight:700;}.cls-4{letter-spacing:-1px;}.cls-5{font-family:Cynulliad Sans Lt;}</style></defs><title>Branding for WISERD website</title><path class="cls-1" d="M70,6.41c6.75-2.19,10.21-1.18,10.21-1.18S76,3.51,68.5,4.92C61.3,6.27,51.11,10.53,38.81,22c-9.33,8.74-15.93,11.64-19.5,10.34,0,0,5.84,8.54,22.52-7.24C54.11,13.52,63.55,8.51,70,6.41"/><path class="cls-1" d="M74.92,11.34c7.19-2.48,10.89-1.4,10.89-1.4S81.29,8.1,73.35,9.77c-7.15,1.5-17.06,5.85-28.95,17-9.33,8.74-15.93,11.64-19.5,10.34,0,0,5.84,8.54,22.52-7.24,11.86-11.22,21.07-16.28,27.5-18.5"/><path class="cls-1" d="M79.91,16.33c7.56-2.74,11.46-1.6,11.46-1.6s-4.76-1.94-13.09,0c-7.1,1.62-16.78,6-28.31,16.83C40.63,40.27,34,43.17,30.46,41.87c0,0,5.84,8.54,22.52-7.24,11.51-10.89,20.53-16,26.92-18.3"/><path class="cls-1" d="M83.22,19.63c-7,1.74-16.48,6.21-27.67,16.68C46.21,45.05,39.61,48,36,46.65c0,0,5.84,8.54,22.52-7.24,11.17-10.57,20-15.67,26.35-18.08,7.94-3,12-1.82,12-1.82s-5-2-13.73.12"/><path class="cls-1" d="M35.54,5.84a9.52,9.52,0,0,0-1.88.35h0a13.6,13.6,0,0,1-3.46.62c-0.33,0-1.29,0-1.16-.61a1.35,1.35,0,0,1,1-.52,9.72,9.72,0,0,1,3.24-.08c1-2.79-3.7-1.9-5.43-1.54s-3.49,1.16-5.31,0c-3-1.89-4.34-.31-7.17-2.28,1.76,2.9,2.65,3.6,4.12,3.7,1.78,0.13,1.71.5,1.71,0.5-0.57.16-1.59,0.59-1.55,0.57a7.46,7.46,0,0,1-4,.43A7.59,7.59,0,0,0,12,7c0.61,0.35,2,1.28,2.19,2.11a2.66,2.66,0,0,1-1.42,1.31c-1.32.48-2-.9-4.39,0.43a7.61,7.61,0,0,1,2.44,1.79,2.16,2.16,0,0,1-2.06,1.23c-1.48.16-2.67-.78-5,0.46,1.08,0.74,4.45,1.36,5.42,4a20.49,20.49,0,0,1,4.34-7.52,20.72,20.72,0,0,1,4.95-3.55,16.17,16.17,0,0,0-7.32,11.31c-0.82,8,5.58,13.48,11.85,11.52,0,0-6.77-.34-6.4-8.23,0.39-8.23,11.5-10.9,18.43-7.34a29.76,29.76,0,0,1,2.94,1.62,3.86,3.86,0,0,1,.34-3.7,7.69,7.69,0,0,0-3.45-.4c-2.11.15-3.17,0.37-4.34-.16S29,9.81,30.65,9.19c1-.4,2.76.58,4.09,1,1.08,0.33,3.95.7,4-1.34,0-1.88,3.63-1.72,3.63-1.72-3.23-1.08-4.4-1.38-6.8-1.27"/><path class="cls-1" d="M42.62,11.1a31.32,31.32,0,0,1-6.43,0L42,12.44l-0.22,1.28,6.65-4.18a22.7,22.7,0,0,1-5.79,1.56"/><line class="cls-2" x1="112.07" y1="48.96" x2="112.07" y2="1.79"/><text class="cls-3" transform="translate(127.19 22.65)">N<tspan x="11.98" y="0">a</tspan><tspan x="20.86" y="0">tional Assemb</tspan><tspan x="129.77" y="0">l</tspan><tspan x="134.17" y="0">y </tspan><tspan x="147.49" y="0">f</tspan><tspan x="152.53" y="0">or </tspan><tspan class="cls-4" x="172.59" y="0">W</tspan><tspan x="187.34" y="0">a</tspan><tspan x="196.34" y="0">l</tspan><tspan x="200.96" y="0">es</tspan></text><text class="cls-5" transform="translate(127.19 40.19)">R<tspan x="8.26" y="0">esea</tspan><tspan x="37.19" y="0">r</tspan><tspan x="41.83" y="0">ch Se</tspan><tspan x="76.33" y="0">r</tspan><tspan x="81.22" y="0">vi</tspan><tspan x="91.03" y="0">c</tspan><tspan x="98.21" y="0">e</tspan></text></svg>