<svg id="Layer_1" data-name="Layer 1" xmlns="http://www.w3.org/2000/svg" viewBox="0 0 290.75 50.75"><defs><style>.cls-1{fill:#fff;}</style></defs><title>Branding for WISERD website</title><path class="cls-1" d="M69,6.11c6.87-2.23,10.4-1.2,10.4-1.2s-4.32-1.76-11.93-.33C60.14,6,49.76,10.3,37.23,22,27.72,30.92,21,33.88,17.37,32.55c0,0,5.95,8.7,22.94-7.38C52.82,13.34,62.43,8.24,69,6.11Z"/><path class="cls-1" d="M74,11.12C81.34,8.6,85.1,9.7,85.1,9.7S80.5,7.82,72.41,9.52c-7.28,1.53-17.38,6-29.48,17.29-9.51,8.9-16.22,11.86-19.86,10.53C23.07,37.34,29,46,46,30,58.09,18.54,67.47,13.38,74,11.12Z"/><path class="cls-1" d="M79.1,16.2c7.7-2.79,11.67-1.63,11.67-1.63s-4.85-2-13.33,0C70.2,16.19,60.34,20.69,48.6,31.68c-9.51,8.9-16.23,11.86-19.86,10.53,0,0,5.94,8.7,22.94-7.38C63.4,23.74,72.58,18.56,79.1,16.2Z"/><path class="cls-1" d="M82.46,19.57c-7.16,1.77-16.79,6.32-28.18,17-9.52,8.9-16.23,11.86-19.87,10.53,0,0,5.94,8.7,22.94-7.37,11.38-10.77,20.36-16,26.83-18.42,8.09-3.07,12.26-1.85,12.26-1.85S91.35,17.37,82.46,19.57Z"/><path class="cls-1" d="M33.9,5.52A9.69,9.69,0,0,0,32,5.88h0a13.8,13.8,0,0,1-3.53.63c-0.33,0-1.31,0-1.18-.63a1.37,1.37,0,0,1,1-.53,9.87,9.87,0,0,1,3.3-.08c1-2.84-3.77-1.93-5.53-1.57s-3.56,1.18-5.4,0c-3-1.93-4.42-.31-7.3-2.32,1.8,3,2.7,3.66,4.2,3.77,1.82,0.13,1.74.51,1.74,0.51-0.58.16-1.62,0.6-1.58,0.58a7.58,7.58,0,0,1-4,.44,7.74,7.74,0,0,0-3.79,0c0.62,0.36,2,1.3,2.23,2.15a2.7,2.7,0,0,1-1.44,1.33c-1.34.49-2.07-.91-4.47,0.43a7.77,7.77,0,0,1,2.48,1.83,2.19,2.19,0,0,1-2.1,1.25c-1.51.16-2.72-.8-5.14,0.47C2.55,14.9,6,15.54,7,18.22a20.87,20.87,0,0,1,4.42-7.66,21.1,21.1,0,0,1,5-3.62A16.47,16.47,0,0,0,9,18.47C8.13,26.61,14.65,32.2,21,30.2c0,0-6.9-.35-6.51-8.38,0.4-8.38,11.71-11.1,18.77-7.47a30.66,30.66,0,0,1,3,1.65,3.94,3.94,0,0,1,.34-3.77,7.83,7.83,0,0,0-3.52-.41C31,12,29.89,12.2,28.7,11.66s-1.44-2.1.22-2.73c1.07-.4,2.81.59,4.17,1,1.1,0.34,4,.71,4-1.37,0-1.92,3.69-1.75,3.69-1.75C37.53,5.72,36.34,5.41,33.9,5.52Z"/><path class="cls-1" d="M41.12,10.88a31.86,31.86,0,0,1-6.55,0l5.9,1.33-0.22,1.3L47,9.29A23.17,23.17,0,0,1,41.12,10.88Z"/><path class="cls-1" d="M116.88,12.15a5.23,5.23,0,0,1-.55.84,3.34,3.34,0,0,1-1.66,1.11,4,4,0,0,1-1.18.16,4.19,4.19,0,0,1-1.83-.39,3.79,3.79,0,0,1-1.38-1.11,5.18,5.18,0,0,1-.86-1.75,8.19,8.19,0,0,1-.3-2.29,8,8,0,0,1,.33-2.41,5.3,5.3,0,0,1,.9-1.75,3.93,3.93,0,0,1,1.33-1.08,4,4,0,0,1,3.79.23,4,4,0,0,1,1.32,1.57l-0.74.4A4.92,4.92,0,0,0,115.64,5a2.89,2.89,0,0,0-3.59-.8,3,3,0,0,0-1.06.92,4.6,4.6,0,0,0-.7,1.51A7.83,7.83,0,0,0,110,8.73a6.94,6.94,0,0,0,.25,1.92,4.72,4.72,0,0,0,.7,1.49,3.23,3.23,0,0,0,1.09,1,3.11,3.11,0,0,0,2.34.21,2.65,2.65,0,0,0,.73-0.37,3.09,3.09,0,0,0,.58-0.55,4.34,4.34,0,0,0,.45-0.67Z"/><path class="cls-1" d="M118.58,16.3l0.5,0.17a1.88,1.88,0,0,0,.55.09,1,1,0,0,0,.63-0.18,1.58,1.58,0,0,0,.42-0.66L121.35,14l-3.09-7.65h0.95l2.59,6.54,2.57-6.54h0.9l-3.91,9.73a1.86,1.86,0,0,1-.69.92,1.9,1.9,0,0,1-1,.26,3.76,3.76,0,0,1-.73-0.07,2.71,2.71,0,0,1-.6-0.19Z"/><path class="cls-1" d="M126.69,14V6.39h0.77l0.07,0.71a5.55,5.55,0,0,1,1.08-.65,3.54,3.54,0,0,1,1.47-.28q2.81,0,2.81,3.06V14h-0.84V9.15a2.46,2.46,0,0,0-.51-1.66A2,2,0,0,0,130,6.9a3,3,0,0,0-1.37.3,5.69,5.69,0,0,0-1.07.69V14h-0.84Z"/><path class="cls-1" d="M135.79,11.32a2.12,2.12,0,0,0,.57,1.66,2.23,2.23,0,0,0,1.54.51,3,3,0,0,0,1.34-.3,3.34,3.34,0,0,0,1-.76v-6h0.85V14h-0.76l-0.06-.76a4.81,4.81,0,0,1-1,.65,3.42,3.42,0,0,1-1.5.28,3,3,0,0,1-2.1-.7,2.88,2.88,0,0,1-.75-2.19V6.39h0.85v4.93Z"/><path class="cls-1" d="M143.5,14V3.32h0.84V14H143.5Z"/><path class="cls-1" d="M146.93,14V3.32h0.84V14h-0.84Z"/><path class="cls-1" d="M150.63,4.75a0.51,0.51,0,0,1-.41-0.21A0.79,0.79,0,0,1,150,4a0.77,0.77,0,0,1,.17-0.51,0.52,0.52,0,0,1,.41-0.2,0.56,0.56,0,0,1,.43.2,0.74,0.74,0,0,1,.18.51,0.77,0.77,0,0,1-.18.52A0.56,0.56,0,0,1,150.63,4.75ZM150.21,14V6.39h0.85V14h-0.85Z"/><path class="cls-1" d="M157.64,14l-0.06-.66a2.85,2.85,0,0,1-.93.61,3.4,3.4,0,0,1-1.31.23,3.26,3.26,0,0,1-1-.15,2.36,2.36,0,0,1-.81-0.45,2,2,0,0,1-.54-0.74,2.47,2.47,0,0,1-.19-1,2.22,2.22,0,0,1,.43-1.39,3,3,0,0,1,1.1-.88,5.42,5.42,0,0,1,1.53-.45A13.21,13.21,0,0,1,157.56,9V8.67a1.81,1.81,0,0,0-.45-1.33,1.74,1.74,0,0,0-1.29-.45,2.19,2.19,0,0,0-1.09.26,2.87,2.87,0,0,0-.78.62l-0.58-.45a3.3,3.3,0,0,1,1-.82,3.06,3.06,0,0,1,1.5-.32,2.26,2.26,0,0,1,2.54,2.58V14h-0.76Zm-0.08-4.31q-0.66,0-1.36.1a4.77,4.77,0,0,0-1.27.31,2.4,2.4,0,0,0-.93.65,1.82,1.82,0,0,0-.21,1.82,1.48,1.48,0,0,0,.41.51,1.73,1.73,0,0,0,.59.3,2.39,2.39,0,0,0,.67.1,2.63,2.63,0,0,0,1.19-.27,3.52,3.52,0,0,0,.92-0.64V9.73Z"/><path class="cls-1" d="M165.74,14l-0.1-.68a2.58,2.58,0,0,1-.9.63,3.54,3.54,0,0,1-2.64-.06,3,3,0,0,1-1.05-.82,3.77,3.77,0,0,1-.67-1.28,5.56,5.56,0,0,1-.23-1.66,4.79,4.79,0,0,1,.26-1.6,3.8,3.8,0,0,1,.72-1.26,3.31,3.31,0,0,1,1.12-.83,3.46,3.46,0,0,1,1.46-.3,3.82,3.82,0,0,1,1.18.15,3.52,3.52,0,0,1,.76.35V3.32h0.84V14h-0.74Zm-0.1-6.53a2.27,2.27,0,0,0-.78-0.44,3.11,3.11,0,0,0-1.07-.18,2.57,2.57,0,0,0-2,.94,3.13,3.13,0,0,0-.57,1,4.15,4.15,0,0,0-.2,1.33,3.89,3.89,0,0,0,.68,2.4,2.26,2.26,0,0,0,1.92.91,2.52,2.52,0,0,0,1.18-.27,2.7,2.7,0,0,0,.88-0.72v-5Z"/><path class="cls-1" d="M116.88,28.23a5.2,5.2,0,0,1-.55.84,3.36,3.36,0,0,1-1.66,1.11,4,4,0,0,1-1.18.16,4.2,4.2,0,0,1-1.83-.39,3.81,3.81,0,0,1-1.38-1.11,5.18,5.18,0,0,1-.86-1.75,8.19,8.19,0,0,1-.3-2.29,8,8,0,0,1,.33-2.41,5.29,5.29,0,0,1,.9-1.75,3.94,3.94,0,0,1,1.33-1.08,4,4,0,0,1,3.79.23,4,4,0,0,1,1.32,1.57l-0.74.4a5,5,0,0,0-.42-0.66A2.78,2.78,0,0,0,113.37,20a2.85,2.85,0,0,0-1.32.31,3,3,0,0,0-1.06.93,4.59,4.59,0,0,0-.7,1.51,7.83,7.83,0,0,0-.25,2.08,7,7,0,0,0,.25,1.92,4.71,4.71,0,0,0,.7,1.49,3.23,3.23,0,0,0,1.09,1,2.94,2.94,0,0,0,1.42.35,2.87,2.87,0,0,0,.92-0.14,2.65,2.65,0,0,0,.73-0.37,3.11,3.11,0,0,0,.58-0.55,4.37,4.37,0,0,0,.45-0.67Z"/><path class="cls-1" d="M119.13,26.15a4.1,4.1,0,0,0,.69,2.53,2.37,2.37,0,0,0,2,.91,2.2,2.2,0,0,0,1.35-.39,3.18,3.18,0,0,0,.87-1l0.61,0.39a4.72,4.72,0,0,1-.44.64,2.88,2.88,0,0,1-.59.55,2.76,2.76,0,0,1-.8.38,3.6,3.6,0,0,1-1,.14,3.21,3.21,0,0,1-2.56-1.05,4.38,4.38,0,0,1-.92-3,5.47,5.47,0,0,1,.24-1.68,3.67,3.67,0,0,1,.68-1.26,3,3,0,0,1,1-.8,3.34,3.34,0,0,1,2.69,0,2.77,2.77,0,0,1,1,.79,3.54,3.54,0,0,1,.61,1.23,6.63,6.63,0,0,1,.24,1.59h-5.68Zm4.73-.71a3.15,3.15,0,0,0-.24-1.12,2.37,2.37,0,0,0-.52-0.77,2.1,2.1,0,0,0-.7-0.44,2.24,2.24,0,0,0-.79-0.14,2.29,2.29,0,0,0-1.58.59,3,3,0,0,0-.84,1.89h4.66Z"/><path class="cls-1" d="M126.35,30.12V22.47h0.77l0.06,0.71a5.5,5.5,0,0,1,1.09-.65,3.53,3.53,0,0,1,1.47-.27q2.81,0,2.81,3.06v4.81h-0.84V25.23a2.45,2.45,0,0,0-.51-1.66,2,2,0,0,0-1.58-.59,3,3,0,0,0-1.38.31,5.79,5.79,0,0,0-1.07.69v6.14h-0.84Z"/><path class="cls-1" d="M135,26.15a4.09,4.09,0,0,0,.69,2.53,2.37,2.37,0,0,0,2,.91,2.21,2.21,0,0,0,1.35-.39,3.16,3.16,0,0,0,.87-1l0.61,0.39a4.73,4.73,0,0,1-.44.64,2.91,2.91,0,0,1-.59.55,2.76,2.76,0,0,1-.8.38,3.6,3.6,0,0,1-1,.14,3.21,3.21,0,0,1-2.56-1.05,4.38,4.38,0,0,1-.92-3,5.45,5.45,0,0,1,.24-1.68,3.63,3.63,0,0,1,.68-1.26,3,3,0,0,1,1-.8,3.34,3.34,0,0,1,2.69,0,2.77,2.77,0,0,1,1,.79,3.53,3.53,0,0,1,.61,1.23,6.67,6.67,0,0,1,.24,1.59H135Zm4.73-.71a3.17,3.17,0,0,0-.24-1.12,2.37,2.37,0,0,0-.52-0.77,2.09,2.09,0,0,0-.7-0.44,2.23,2.23,0,0,0-.79-0.14,2.29,2.29,0,0,0-1.58.59,3,3,0,0,0-.84,1.89h4.66Z"/><path class="cls-1" d="M147.85,30.12l-0.1-.68a2.58,2.58,0,0,1-.9.63,3.21,3.21,0,0,1-1.26.22A3.25,3.25,0,0,1,144.2,30a3,3,0,0,1-1.05-.82,3.76,3.76,0,0,1-.67-1.28,5.59,5.59,0,0,1-.23-1.67,4.8,4.8,0,0,1,.26-1.6,3.8,3.8,0,0,1,.72-1.26,3.28,3.28,0,0,1,1.12-.83,3.47,3.47,0,0,1,1.46-.3,3.84,3.84,0,0,1,1.18.15,3.51,3.51,0,0,1,.76.35V19.39h0.84V30.12h-0.74Zm-0.1-6.53a2.24,2.24,0,0,0-.78-0.44A3.09,3.09,0,0,0,145.9,23a2.58,2.58,0,0,0-2,.94,3.16,3.16,0,0,0-.57,1,4.18,4.18,0,0,0-.2,1.33,3.9,3.9,0,0,0,.68,2.4,2.27,2.27,0,0,0,1.92.91,2.52,2.52,0,0,0,1.18-.27,2.69,2.69,0,0,0,.88-0.72v-5Z"/><path class="cls-1" d="M150.95,30.12V19.39h0.84V30.12h-0.84Z"/><path class="cls-1" d="M158.39,30.12l-0.06-.66a2.87,2.87,0,0,1-.93.61,3.41,3.41,0,0,1-1.31.22,3.27,3.27,0,0,1-1-.15,2.35,2.35,0,0,1-.81-0.45,2,2,0,0,1-.54-0.74,2.53,2.53,0,0,1-.19-1,2.21,2.21,0,0,1,.43-1.39,3,3,0,0,1,1.1-.88,5.43,5.43,0,0,1,1.53-.45,13.22,13.22,0,0,1,1.72-.15V24.74a1.8,1.8,0,0,0-.45-1.33,1.74,1.74,0,0,0-1.28-.45,2.18,2.18,0,0,0-1.09.27,2.83,2.83,0,0,0-.78.62l-0.58-.45a3.3,3.3,0,0,1,1-.82,3.06,3.06,0,0,1,1.5-.32,2.26,2.26,0,0,1,2.54,2.57v5.29h-0.76Zm-0.08-4.31q-0.66,0-1.36.1a4.8,4.8,0,0,0-1.27.31,2.43,2.43,0,0,0-.93.65,1.82,1.82,0,0,0-.21,1.82,1.46,1.46,0,0,0,.41.51,1.72,1.72,0,0,0,.59.3,2.35,2.35,0,0,0,.67.1,2.63,2.63,0,0,0,1.19-.27,3.49,3.49,0,0,0,.92-0.64V25.81Z"/><path class="cls-1" d="M161.7,26.15a4.1,4.1,0,0,0,.69,2.53,2.37,2.37,0,0,0,2,.91,2.2,2.2,0,0,0,1.35-.39,3.19,3.19,0,0,0,.87-1l0.61,0.39a4.76,4.76,0,0,1-.44.64,2.91,2.91,0,0,1-.6.55,2.77,2.77,0,0,1-.8.38,3.59,3.59,0,0,1-1,.14,3.21,3.21,0,0,1-2.56-1.05,4.38,4.38,0,0,1-.92-3,5.45,5.45,0,0,1,.24-1.68,3.67,3.67,0,0,1,.68-1.26,3,3,0,0,1,1-.8,3.34,3.34,0,0,1,2.69,0,2.77,2.77,0,0,1,1,.79,3.55,3.55,0,0,1,.61,1.23,6.6,6.6,0,0,1,.24,1.59H161.7Zm4.73-.71a3.16,3.16,0,0,0-.24-1.12,2.37,2.37,0,0,0-.52-0.77,2.11,2.11,0,0,0-.7-0.44,2.23,2.23,0,0,0-.79-0.14,2.29,2.29,0,0,0-1.58.59,3,3,0,0,0-.84,1.89h4.66Z"/><path class="cls-1" d="M170.58,28.49a1.17,1.17,0,0,0,.25.85,0.94,0.94,0,0,0,.68.24A1.45,1.45,0,0,0,172,29.5a1.75,1.75,0,0,0,.45-0.26l0.35,0.61a2.21,2.21,0,0,1-1.51.45,1.56,1.56,0,0,1-1.15-.43,1.68,1.68,0,0,1-.43-1.25V23.17h-1.32V22.47h1.32V20.4h0.84v2.06h2v0.71h-2v5.32Z"/><path class="cls-1" d="M174.37,30.12V19.39h0.84v3.73a4.46,4.46,0,0,1,1.07-.62,3.72,3.72,0,0,1,1.42-.25,2.78,2.78,0,0,1,2.17.76,3.24,3.24,0,0,1,.68,2.22v4.89H179.7V25.25a2.36,2.36,0,0,0-.54-1.74,2.17,2.17,0,0,0-1.58-.53,3,3,0,0,0-1.29.28,6,6,0,0,0-1.07.65v6.21h-0.84Z"/><path class="cls-1" d="M184.17,30A3.52,3.52,0,0,1,183.1,29a3.94,3.94,0,0,1-.65-1.3,5.34,5.34,0,0,1-.22-1.51,5.1,5.1,0,0,1,.22-1.49,4,4,0,0,1,.64-1.27,3.12,3.12,0,0,1,1.06-.88,3.19,3.19,0,0,1,1.49-.33,3.14,3.14,0,0,1,1.48.34,3.28,3.28,0,0,1,1.08.89,3.86,3.86,0,0,1,.65,1.28,5.16,5.16,0,0,1,.22,1.5,5.31,5.31,0,0,1-.22,1.52,3.84,3.84,0,0,1-.65,1.29,3.3,3.3,0,0,1-1.08.89A3.41,3.41,0,0,1,184.17,30Zm-0.45-1.42a2.58,2.58,0,0,0,.8.76,2.34,2.34,0,0,0,2.27,0,2.64,2.64,0,0,0,.8-0.77,3.53,3.53,0,0,0,.48-1.07,4.63,4.63,0,0,0,.16-1.21,4.55,4.55,0,0,0-.16-1.2,3.47,3.47,0,0,0-.48-1.05,2.5,2.5,0,0,0-.8-0.75,2.45,2.45,0,0,0-2.28,0,2.52,2.52,0,0,0-.81.74,3.21,3.21,0,0,0-.47,1,4.77,4.77,0,0,0,0,2.43A3.6,3.6,0,0,0,183.72,28.54Z"/><path class="cls-1" d="M190.82,30.12V19.39h0.84V30.12h-0.84Z"/><path class="cls-1" d="M117,44.26a5.34,5.34,0,0,1-.51.77,3.62,3.62,0,0,1-.72.69,3.77,3.77,0,0,1-1,.5,3.72,3.72,0,0,1-1.24.19,4.83,4.83,0,0,1-1.76-.31,3.64,3.64,0,0,1-1.42-1,4.76,4.76,0,0,1-.95-1.71,8.12,8.12,0,0,1-.35-2.53,7.87,7.87,0,0,1,.37-2.57,5.06,5.06,0,0,1,1-1.75,3.72,3.72,0,0,1,1.37-1,4,4,0,0,1,1.55-.31,4,4,0,0,1,2.17.6A3.66,3.66,0,0,1,117,37.46l-1,.63a3.6,3.6,0,0,0-.38-0.59A2.89,2.89,0,0,0,115,37a3.1,3.1,0,0,0-.69-0.39,2.13,2.13,0,0,0-.81-0.15,2.54,2.54,0,0,0-2.21,1.16,5.79,5.79,0,0,0-.8,3.3,6.58,6.58,0,0,0,.24,1.86,4.27,4.27,0,0,0,.66,1.37,2.7,2.7,0,0,0,2.22,1.12,2.47,2.47,0,0,0,.83-0.13,2.62,2.62,0,0,0,.66-0.35,2.66,2.66,0,0,0,.53-0.52,6,6,0,0,0,.43-0.62Z"/><path class="cls-1" d="M118.39,48.22a3.56,3.56,0,0,0,.44.12,2.55,2.55,0,0,0,.54.06,0.87,0.87,0,0,0,.58-0.18,2,2,0,0,0,.43-0.69L121,46l-3-7.48h1.42l2.27,5.9,2.27-5.9h1.34l-3.92,9.7a1.76,1.76,0,0,1-.81,1,2.46,2.46,0,0,1-1.09.26,3.2,3.2,0,0,1-.78-0.1,4.61,4.61,0,0,1-.64-0.2Z"/><path class="cls-1" d="M126.46,46.2V38.52h1.14l0.08,0.61a5.62,5.62,0,0,1,1-.54,3.33,3.33,0,0,1,1.33-.26,3.4,3.4,0,0,1,1.18.21,2,2,0,0,1,1,.77,4.62,4.62,0,0,1,1.17-.69,3.9,3.9,0,0,1,1.51-.29,3.6,3.6,0,0,1,1.34.22,2,2,0,0,1,.85.63,2.48,2.48,0,0,1,.44,1,6.63,6.63,0,0,1,.13,1.38V46.2h-1.26V41.4a2.63,2.63,0,0,0-.37-1.5,1.52,1.52,0,0,0-1.35-.54,2.41,2.41,0,0,0-.64.09,4,4,0,0,0-.6.22,4.65,4.65,0,0,0-.51.27,4.16,4.16,0,0,0-.39.27,3.89,3.89,0,0,1,.12.57,6.32,6.32,0,0,1,0,.78V46.2H131.4V41.4a4.1,4.1,0,0,0-.07-0.79,1.77,1.77,0,0,0-.26-0.65,1.29,1.29,0,0,0-.49-0.44,1.68,1.68,0,0,0-.79-0.16,2.45,2.45,0,0,0-1.12.28,8.32,8.32,0,0,0-1,.57v6h-1.24Z"/><path class="cls-1" d="M139.6,46.2V38.52h1.13l0.1,0.68a3.31,3.31,0,0,1,.79-0.6,2,2,0,0,1,1-.27,4,4,0,0,1,.65,0,3.82,3.82,0,0,1,.46.1l-0.23,1.15a2.53,2.53,0,0,0-1-.18,1.7,1.7,0,0,0-.89.26,5,5,0,0,0-.73.53v6H139.6Z"/><path class="cls-1" d="M146.12,43.44a2,2,0,0,0,.47,1.47,1.9,1.9,0,0,0,1.38.46,3,3,0,0,0,1.18-.25,3.12,3.12,0,0,0,1-.6v-6h1.26V46.2h-1.14l-0.08-.6a4.12,4.12,0,0,1-1,.56,3.9,3.9,0,0,1-1.37.21,2.86,2.86,0,0,1-2.19-.74,3.23,3.23,0,0,1-.68-2.25V38.52h1.24v4.92Z"/><path class="cls-1" d="M208.77,14V3.32h0.93l6,9v-9h0.87V14h-0.77L209.63,4.8V14h-0.87Z"/><path class="cls-1" d="M223,14L223,13.38a2.86,2.86,0,0,1-.92.61,3.39,3.39,0,0,1-1.31.23,3.2,3.2,0,0,1-1-.15,2.37,2.37,0,0,1-.81-0.45,2,2,0,0,1-.54-0.74,2.49,2.49,0,0,1-.19-1,2.22,2.22,0,0,1,.43-1.39,3,3,0,0,1,1.1-.88,5.41,5.41,0,0,1,1.53-.45A13,13,0,0,1,223,9V8.67a1.82,1.82,0,0,0-.45-1.33,1.75,1.75,0,0,0-1.29-.45,2.19,2.19,0,0,0-1.08.26,2.88,2.88,0,0,0-.78.62l-0.58-.45a3.31,3.31,0,0,1,1-.82,3.05,3.05,0,0,1,1.49-.32,2.26,2.26,0,0,1,2.54,2.58V14H223ZM223,9.73q-0.66,0-1.36.1a4.79,4.79,0,0,0-1.27.31,2.43,2.43,0,0,0-.93.65,1.82,1.82,0,0,0-.21,1.82,1.48,1.48,0,0,0,.41.51,1.71,1.71,0,0,0,.59.3,2.35,2.35,0,0,0,.67.1,2.61,2.61,0,0,0,1.19-.27A3.48,3.48,0,0,0,223,12.6V9.73Z"/><path class="cls-1" d="M227.21,12.42a1.17,1.17,0,0,0,.25.85,1,1,0,0,0,.68.24,1.45,1.45,0,0,0,.53-0.09,1.8,1.8,0,0,0,.45-0.27l0.35,0.61a2.75,2.75,0,0,1-.64.34,2.66,2.66,0,0,1-.88.11,1.56,1.56,0,0,1-1.15-.43,1.68,1.68,0,0,1-.43-1.25V7.1h-1.32V6.39h1.32V4.33h0.84V6.39h2V7.1h-2v5.32Z"/><path class="cls-1" d="M231.39,4.76A0.51,0.51,0,0,1,231,4.54,0.8,0.8,0,0,1,230.81,4,0.76,0.76,0,0,1,231,3.52a0.52,0.52,0,0,1,.41-0.2,0.56,0.56,0,0,1,.43.2A0.74,0.74,0,0,1,232,4a0.76,0.76,0,0,1-.18.52A0.56,0.56,0,0,1,231.39,4.76ZM231,14V6.39h0.85V14H231Z"/><path class="cls-1" d="M235.55,13.88a3.5,3.5,0,0,1-1.06-.92,3.9,3.9,0,0,1-.65-1.3,5.36,5.36,0,0,1-.22-1.51,5.12,5.12,0,0,1,.22-1.49,4,4,0,0,1,.64-1.27,3.14,3.14,0,0,1,1.06-.88A3.19,3.19,0,0,1,237,6.18a3.13,3.13,0,0,1,1.48.34,3.28,3.28,0,0,1,1.08.89,3.81,3.81,0,0,1,.65,1.28,5.16,5.16,0,0,1,.22,1.5,5.3,5.3,0,0,1-.22,1.52,3.8,3.8,0,0,1-.65,1.29,3.26,3.26,0,0,1-1.08.89A3.39,3.39,0,0,1,235.55,13.88Zm-0.45-1.41a2.6,2.6,0,0,0,.8.76,2.35,2.35,0,0,0,2.27,0,2.67,2.67,0,0,0,.8-0.77,3.51,3.51,0,0,0,.48-1.07,4.62,4.62,0,0,0,.16-1.21,4.52,4.52,0,0,0-.16-1.2A3.45,3.45,0,0,0,239,7.92a2.52,2.52,0,0,0-.8-0.75,2.46,2.46,0,0,0-2.28,0,2.55,2.55,0,0,0-.8.74,3.2,3.2,0,0,0-.48,1,4.79,4.79,0,0,0,0,2.43A3.64,3.64,0,0,0,235.1,12.47Z"/><path class="cls-1" d="M242.06,14V6.39h0.77L242.9,7.1A5.56,5.56,0,0,1,244,6.45a3.54,3.54,0,0,1,1.47-.27q2.82,0,2.81,3.06V14h-0.84V9.16a2.45,2.45,0,0,0-.51-1.66,2,2,0,0,0-1.58-.59,3,3,0,0,0-1.37.3,5.77,5.77,0,0,0-1.07.69V14h-0.84Z"/><path class="cls-1" d="M254.83,14l-0.06-.66a2.86,2.86,0,0,1-.93.61,3.38,3.38,0,0,1-1.31.23,3.21,3.21,0,0,1-1-.15,2.36,2.36,0,0,1-.81-0.45,2,2,0,0,1-.54-0.74,2.48,2.48,0,0,1-.19-1,2.21,2.21,0,0,1,.43-1.39,3,3,0,0,1,1.1-.88A5.44,5.44,0,0,1,253,9.15,13,13,0,0,1,254.75,9V8.67a1.82,1.82,0,0,0-.45-1.33A1.75,1.75,0,0,0,253,6.89a2.19,2.19,0,0,0-1.09.26,2.85,2.85,0,0,0-.78.62l-0.58-.45a3.32,3.32,0,0,1,1-.82,3.06,3.06,0,0,1,1.5-.32,2.26,2.26,0,0,1,2.54,2.58V14h-0.76Zm-0.08-4.31c-0.44,0-.89,0-1.36.1a4.8,4.8,0,0,0-1.27.31,2.42,2.42,0,0,0-.93.65,1.82,1.82,0,0,0-.21,1.82,1.47,1.47,0,0,0,.41.51,1.7,1.7,0,0,0,.59.3,2.36,2.36,0,0,0,.67.1,2.62,2.62,0,0,0,1.19-.27,3.5,3.5,0,0,0,.92-0.64V9.73Z"/><path class="cls-1" d="M257.74,14V3.32h0.84V14h-0.84Z"/><path class="cls-1" d="M207.46,30.12l4.07-10.73h0.66l4.12,10.73h-0.92l-1.32-3.44h-4.42l-1.28,3.44h-0.9Zm2.48-4.24h3.84l-2-5.18Z"/><path class="cls-1" d="M217.88,28.53a2.4,2.4,0,0,0,.78.77,2.26,2.26,0,0,0,1.2.29,2.11,2.11,0,0,0,1.3-.35,1.24,1.24,0,0,0,.48-1.06,1.43,1.43,0,0,0-.48-1.15,5,5,0,0,0-1.56-.78,4.07,4.07,0,0,1-1.58-.84,1.72,1.72,0,0,1-.47-1.27,1.69,1.69,0,0,1,.63-1.36,2.64,2.64,0,0,1,1.74-.52,3,3,0,0,1,1.48.33,2.54,2.54,0,0,1,.92.86l-0.63.45a2.33,2.33,0,0,0-.72-0.68,2,2,0,0,0-1.05-.27,1.7,1.7,0,0,0-1.15.33,1,1,0,0,0-.38.83,1.27,1.27,0,0,0,.09.5,1,1,0,0,0,.3.39,2.75,2.75,0,0,0,.59.35c0.25,0.11.57,0.23,0.94,0.36a4,4,0,0,1,1.6.92,2.1,2.1,0,0,1,.52,1.51,1.9,1.9,0,0,1-.73,1.62,3,3,0,0,1-1.84.56,3.12,3.12,0,0,1-1.68-.39,2.94,2.94,0,0,1-1-1Z"/><path class="cls-1" d="M224.25,28.53a2.38,2.38,0,0,0,.78.77,2.27,2.27,0,0,0,1.2.29,2.11,2.11,0,0,0,1.29-.35,1.24,1.24,0,0,0,.47-1.06,1.43,1.43,0,0,0-.48-1.15,5,5,0,0,0-1.56-.78,4.08,4.08,0,0,1-1.58-.84,1.72,1.72,0,0,1-.47-1.27,1.69,1.69,0,0,1,.63-1.36,2.64,2.64,0,0,1,1.74-.52,3,3,0,0,1,1.48.33,2.57,2.57,0,0,1,.92.86l-0.63.45a2.32,2.32,0,0,0-.71-0.68,2,2,0,0,0-1.06-.27,1.7,1.7,0,0,0-1.15.33,1.05,1.05,0,0,0-.38.83,1.29,1.29,0,0,0,.09.5,1,1,0,0,0,.31.39,2.75,2.75,0,0,0,.59.35c0.25,0.11.57,0.23,0.94,0.36a4,4,0,0,1,1.6.92,2.1,2.1,0,0,1,.52,1.51,1.9,1.9,0,0,1-.73,1.62,3,3,0,0,1-1.84.56,3.11,3.11,0,0,1-1.68-.39,2.88,2.88,0,0,1-1-1Z"/><path class="cls-1" d="M231,26.15a4.09,4.09,0,0,0,.69,2.53,2.37,2.37,0,0,0,2,.91,2.2,2.2,0,0,0,1.35-.39,3.17,3.17,0,0,0,.87-1l0.61,0.39a4.76,4.76,0,0,1-.44.64,2.85,2.85,0,0,1-.6.55,2.78,2.78,0,0,1-.8.38,3.6,3.6,0,0,1-1,.14,3.21,3.21,0,0,1-2.56-1.05,4.39,4.39,0,0,1-.92-3,5.49,5.49,0,0,1,.24-1.68,3.71,3.71,0,0,1,.68-1.26,3,3,0,0,1,1-.8,3.35,3.35,0,0,1,2.69,0,2.77,2.77,0,0,1,1,.79,3.53,3.53,0,0,1,.61,1.23,6.63,6.63,0,0,1,.24,1.59H231Zm4.73-.71a3.13,3.13,0,0,0-.24-1.12,2.36,2.36,0,0,0-.52-0.77,2.08,2.08,0,0,0-.7-0.44,2.23,2.23,0,0,0-.79-0.14,2.29,2.29,0,0,0-1.58.59,3,3,0,0,0-.84,1.89h4.66Z"/><path class="cls-1" d="M238.43,30.12V22.47h0.77l0,0.71a4.84,4.84,0,0,1,1-.62,3.19,3.19,0,0,1,1.41-.3,2.94,2.94,0,0,1,1.23.23,2,2,0,0,1,.83.68,4.21,4.21,0,0,1,1.07-.64,3.78,3.78,0,0,1,1.5-.27,2.59,2.59,0,0,1,2.08.78,3.33,3.33,0,0,1,.67,2.23v4.86h-0.85V25.2a2.33,2.33,0,0,0-.52-1.65A1.93,1.93,0,0,0,246.2,23a2.86,2.86,0,0,0-1.24.26,4.3,4.3,0,0,0-.93.58,3.23,3.23,0,0,1,.16.59,4.27,4.27,0,0,1,.06.76v4.94H243.4v-5a3.19,3.19,0,0,0-.1-0.84,1.87,1.87,0,0,0-.33-0.68,1.48,1.48,0,0,0-.59-0.45,2.08,2.08,0,0,0-.86-0.16,2.54,2.54,0,0,0-1.25.32,6,6,0,0,0-1,.68v6.13h-0.84Z"/><path class="cls-1" d="M252,22.82a4.74,4.74,0,0,1,.92-0.4,3.66,3.66,0,0,1,1.13-.16,3.59,3.59,0,0,1,1.33.25,3,3,0,0,1,1.09.75,3.59,3.59,0,0,1,.74,1.25,5,5,0,0,1,.27,1.73,4.7,4.7,0,0,1-.29,1.69,3.82,3.82,0,0,1-.8,1.29,3.47,3.47,0,0,1-1.18.81,3.75,3.75,0,0,1-1.46.28,6.61,6.61,0,0,1-2.59-.5V19.4H252v3.42Zm0,6.47a4.94,4.94,0,0,0,.81.23,4.19,4.19,0,0,0,.81.09,3.13,3.13,0,0,0,1.24-.24,2.62,2.62,0,0,0,1-.69,3.25,3.25,0,0,0,.61-1.07,4.14,4.14,0,0,0,.22-1.38,4.22,4.22,0,0,0-.21-1.38,2.94,2.94,0,0,0-.59-1,2.59,2.59,0,0,0-.88-0.64,2.63,2.63,0,0,0-1.09-.23,2.92,2.92,0,0,0-1,.17,3.5,3.5,0,0,0-.89.47v5.68Z"/><path class="cls-1" d="M259.1,30.12V19.4h0.84V30.12H259.1Z"/><path class="cls-1" d="M261.55,32.38l0.5,0.17a1.88,1.88,0,0,0,.55.09,1,1,0,0,0,.63-0.18,1.59,1.59,0,0,0,.42-0.66l0.68-1.69-3.09-7.65h0.95L264.77,29l2.57-6.55h0.9l-3.91,9.73a1.66,1.66,0,0,1-1.7,1.17,3.71,3.71,0,0,1-.73-0.07,2.68,2.68,0,0,1-.6-0.19Z"/><path class="cls-1" d="M272.59,30.12V23.18h-1.14V22.47h1.14v-0.9a2.56,2.56,0,0,1,.55-1.8,1.94,1.94,0,0,1,1.48-.58,3.12,3.12,0,0,1,.92.11,3.56,3.56,0,0,1,.59.24l-0.29.69a2.83,2.83,0,0,0-.51-0.22,2.14,2.14,0,0,0-.68-0.1,1.15,1.15,0,0,0-.89.36,2.07,2.07,0,0,0-.33,1.36v0.84h1.78v0.71h-1.78v6.95h-0.84Z"/><path class="cls-1" d="M278,30A3.48,3.48,0,0,1,276.9,29a3.89,3.89,0,0,1-.65-1.3,5.31,5.31,0,0,1-.22-1.51,5.06,5.06,0,0,1,.22-1.49,3.93,3.93,0,0,1,.64-1.27,3.13,3.13,0,0,1,1.06-.88,3.19,3.19,0,0,1,1.49-.33,3.13,3.13,0,0,1,1.48.34,3.28,3.28,0,0,1,1.08.89,3.82,3.82,0,0,1,.65,1.28,5.2,5.2,0,0,1,.22,1.5,5.34,5.34,0,0,1-.22,1.52,3.82,3.82,0,0,1-.65,1.29,3.31,3.31,0,0,1-1.08.89A3.41,3.41,0,0,1,278,30Zm-0.45-1.42a2.59,2.59,0,0,0,.8.76,2.35,2.35,0,0,0,2.27,0,2.62,2.62,0,0,0,.8-0.77,3.47,3.47,0,0,0,.48-1.07,4.61,4.61,0,0,0,.16-1.2,4.55,4.55,0,0,0-.16-1.2,3.42,3.42,0,0,0-.48-1.05,2.51,2.51,0,0,0-.8-0.75,2.46,2.46,0,0,0-2.29,0,2.54,2.54,0,0,0-.8.74,3.25,3.25,0,0,0-.48,1,4.79,4.79,0,0,0-.15,1.2,4.68,4.68,0,0,0,.16,1.23A3.61,3.61,0,0,0,277.51,28.54Z"/><path class="cls-1" d="M284.59,30.12V22.47h0.76l0.06,0.78a3.07,3.07,0,0,1,.83-0.69,2.1,2.1,0,0,1,1.07-.28,4.31,4.31,0,0,1,.57,0,2.63,2.63,0,0,1,.41.08l-0.15.79a2.67,2.67,0,0,0-.9-0.13,1.81,1.81,0,0,0-1,.32,3.65,3.65,0,0,0-.81.71v6h-0.83Z"/><path class="cls-1" d="M210.17,46.2l-2.7-10.72h1.3l2,7.57,2.41-7.57h0.67L216.28,43l1.94-7.57h1.32l-2.7,10.72h-0.77l-2.57-8-2.56,8h-0.77Z"/><path class="cls-1" d="M224.65,46.2l-0.06-.66a2.84,2.84,0,0,1-.92.62,3,3,0,0,1-1.15.22,3.18,3.18,0,0,1-1-.15,2.54,2.54,0,0,1-.84-0.45,2.26,2.26,0,0,1-.59-0.75,2.29,2.29,0,0,1-.23-1,2,2,0,0,1,.44-1.35,3.17,3.17,0,0,1,1.12-.84,5.58,5.58,0,0,1,1.49-.44,10.39,10.39,0,0,1,1.59-.13v-0.1a2,2,0,0,0-.41-1.39,1.58,1.58,0,0,0-1.18-.42,2.06,2.06,0,0,0-1,.23,2.32,2.32,0,0,0-.75.62l-0.87-.61a2.9,2.9,0,0,1,1.1-.92,3.79,3.79,0,0,1,1.6-.3,2.83,2.83,0,0,1,2,.66,2.88,2.88,0,0,1,.72,2.2v5h-1.13Zm-0.11-4c-0.35,0-.73,0-1.13.08a4.61,4.61,0,0,0-1.1.25,2.1,2.1,0,0,0-.84.54,1.31,1.31,0,0,0-.33.93,1.25,1.25,0,0,0,.14.63,1.4,1.4,0,0,0,.36.42,1.37,1.37,0,0,0,.48.24,2,2,0,0,0,.52.07,2.35,2.35,0,0,0,1-.23,3.94,3.94,0,0,0,.84-0.55V42.2Z"/><path class="cls-1" d="M227.8,46.2V35.48H229V46.2H227.8Z"/><path class="cls-1" d="M232,42.29a3.53,3.53,0,0,0,.66,2.27,2.31,2.31,0,0,0,1.91.82,2.05,2.05,0,0,0,1.22-.35,2.79,2.79,0,0,0,.8-0.87l0.82,0.55a3.76,3.76,0,0,1-1.09,1.2,3,3,0,0,1-1.79.47,4.33,4.33,0,0,1-1.56-.27,3.23,3.23,0,0,1-1.18-.77,3.4,3.4,0,0,1-.76-1.26,5.31,5.31,0,0,1-.27-1.75,5.08,5.08,0,0,1,.25-1.65,3.82,3.82,0,0,1,.69-1.25,3,3,0,0,1,1.08-.8,3.46,3.46,0,0,1,1.41-.28,3.56,3.56,0,0,1,1.49.29,2.83,2.83,0,0,1,1.05.81,3.53,3.53,0,0,1,.63,1.25,5.8,5.8,0,0,1,.21,1.6H232Zm4.18-1a2.2,2.2,0,0,0-.19-0.88,2,2,0,0,0-.45-0.63,1.77,1.77,0,0,0-.63-0.37,2.17,2.17,0,0,0-.71-0.12,2,2,0,0,0-1.33.46,2.56,2.56,0,0,0-.76,1.54h4.07Z"/><path class="cls-1" d="M239.8,44.3a2.11,2.11,0,0,0,.7.8,2,2,0,0,0,1.15.28q1.58,0,1.58-1.13a1.39,1.39,0,0,0-.1-0.57,1.13,1.13,0,0,0-.34-0.42,2.94,2.94,0,0,0-.6-0.35c-0.25-.11-0.55-0.23-0.9-0.36a6.34,6.34,0,0,1-1-.41,2.82,2.82,0,0,1-.66-0.47,1.6,1.6,0,0,1-.38-0.58,2.16,2.16,0,0,1-.12-0.76,1.75,1.75,0,0,1,.68-1.46,2.88,2.88,0,0,1,1.81-.53,3.48,3.48,0,0,1,1.56.31,3,3,0,0,1,1.06.89l-0.87.69a2.89,2.89,0,0,0-.76-0.64,1.88,1.88,0,0,0-1-.26,1.58,1.58,0,0,0-1,.27,0.81,0.81,0,0,0-.33.65,1,1,0,0,0,.09.43,0.9,0.9,0,0,0,.31.34,3.33,3.33,0,0,0,.59.31c0.24,0.1.55,0.22,0.92,0.35a4.11,4.11,0,0,1,1.61.93,2.06,2.06,0,0,1,.55,1.5,2.19,2.19,0,0,1-.21,1,2.11,2.11,0,0,1-.57.72,2.57,2.57,0,0,1-.86.44,3.71,3.71,0,0,1-1.09.15,2.95,2.95,0,0,1-2.81-1.48Z"/></svg>