<svg id="Layer_1" data-name="Layer 1" xmlns="http://www.w3.org/2000/svg" viewBox="0 0 366.08 50.75"><defs><style>.cls-1,.cls-3,.cls-4{fill:#fff;}.cls-2{fill:none;stroke:#fff;stroke-width:1.6px;}.cls-3,.cls-4{font-size:15.97px;}.cls-3{font-family:Cynulliad Serif;font-weight:700;}.cls-4{font-family:Cynulliad Sans Lt;}.cls-5{letter-spacing:-1px;}</style></defs><title>Branding for WISERD website</title><path class="cls-1" d="M70,6.39C76.76,4.2,80.23,5.22,80.23,5.22S76,3.49,68.5,4.89C61.3,6.25,51.09,10.51,38.78,22c-9.34,8.75-15.95,11.65-19.52,10.35,0,0,5.84,8.55,22.54-7.25C54.1,13.51,63.55,8.49,70,6.39"/><path class="cls-1" d="M74.93,11.32c7.2-2.48,10.9-1.4,10.9-1.4S81.3,8.08,73.36,9.75c-7.15,1.5-17.08,5.86-29,17C35,35.49,28.44,38.4,24.87,37.09c0,0,5.84,8.55,22.54-7.25C59.28,18.61,68.5,13.55,74.93,11.32"/><path class="cls-1" d="M79.93,16.32c7.57-2.74,11.47-1.6,11.47-1.6s-4.77-1.94-13.1,0c-7.1,1.63-16.79,6-28.34,16.85C40.6,40.28,34,43.19,30.43,41.88c0,0,5.84,8.55,22.55-7.25,11.53-10.9,20.55-16,27-18.32"/><path class="cls-1" d="M83.23,19.63c-7,1.74-16.5,6.21-27.7,16.7C46.19,45.07,39.59,48,36,46.68c0,0,5.84,8.55,22.55-7.25,11.18-10.58,20-15.69,26.38-18.1,8-3,12-1.82,12-1.82s-5-2-13.75.12"/><path class="cls-1" d="M35.5,5.82a9.52,9.52,0,0,0-1.88.35h0a13.62,13.62,0,0,1-3.47.62c-0.33,0-1.29,0-1.16-.62a1.35,1.35,0,0,1,1-.52,9.74,9.74,0,0,1,3.24-.08c1-2.79-3.7-1.9-5.43-1.54s-3.5,1.16-5.31,0c-3-1.9-4.35-.31-7.17-2.28,1.77,2.9,2.65,3.6,4.12,3.7,1.79,0.13,1.71.5,1.71,0.5-0.57.16-1.59,0.59-1.55,0.57a7.47,7.47,0,0,1-4,.43,7.6,7.6,0,0,0-3.72,0c0.61,0.36,2,1.28,2.19,2.11a2.66,2.66,0,0,1-1.42,1.31c-1.32.48-2-.9-4.39,0.43a7.61,7.61,0,0,1,2.44,1.79,2.16,2.16,0,0,1-2.07,1.23C7.18,14,6,13.06,3.61,14.3,4.69,15,8.07,15.67,9,18.3a20.52,20.52,0,0,1,4.35-7.53,20.74,20.74,0,0,1,5-3.56A16.19,16.19,0,0,0,11,18.54c-0.82,8,5.58,13.5,11.86,11.54,0,0-6.78-.34-6.4-8.24C16.85,13.6,28,10.93,34.91,14.49a29.79,29.79,0,0,1,2.95,1.62,3.87,3.87,0,0,1,.34-3.7,7.69,7.69,0,0,0-3.46-.4c-2.11.15-3.17,0.37-4.34-.16S29,9.79,30.61,9.17c1-.4,2.76.58,4.1,1,1.08,0.33,4,.7,4-1.35,0-1.89,3.63-1.72,3.63-1.72C39.08,6,37.9,5.71,35.5,5.82"/><path class="cls-1" d="M42.6,11.09a31.36,31.36,0,0,1-6.43,0L42,12.43l-0.22,1.28L48.4,9.53a22.73,22.73,0,0,1-5.8,1.56"/><line class="cls-2" x1="112.12" y1="48.99" x2="112.12" y2="1.76"/><text class="cls-3" transform="translate(127.25 22.64)">Cy<tspan x="20.6" y="0">n</tspan><tspan x="30.29" y="0">ulliad Cenedlae</tspan><tspan x="148.76" y="0">t</tspan><tspan x="154.45" y="0">hol Cymru</tspan></text><text class="cls-4" transform="translate(127.25 40.21)">Y Gwasanaeth <tspan class="cls-5" x="91.42" y="0">Y</tspan><tspan x="98.46" y="0">mchwil</tspan></text></svg>